<svg xmlns="http://www.w3.org/2000/svg" xmlns:xlink="http://www.w3.org/1999/xlink" width="512" height="512" viewBox="0 0 512 512" version="1.1">
	<path d="M 221 15.584 C 202.155 18.543, 173.068 27.243, 153.181 35.868 L 143.958 39.869 139.729 38.017 C 133.653 35.357, 123.789 33.655, 118.793 34.404 C 112.759 35.309, 104.911 40.078, 101.604 44.850 C 96.700 51.926, 95.567 56.446, 95.403 69.572 L 95.253 81.643 90.789 88.572 C 76.951 110.045, 73.358 117.135, 70.397 128.808 C 67.835 138.906, 67.364 148.549, 68.958 158.276 C 69.829 163.594, 69.709 164.341, 67.447 167.673 C 64.688 171.740, 62 179.904, 62 184.221 C 62 189.081, 58.462 194.168, 49.086 202.790 C 24.551 225.350, 8.967 256.996, 7.316 287.611 C 6.635 300.230, 8.595 311.089, 12.408 315.822 C 13.766 317.509, 15.207 321.831, 16.301 327.500 C 18.749 340.184, 25.216 353.071, 33.581 361.938 C 41.078 369.886, 47.228 373.008, 56.921 373.786 L 63.343 374.301 76.422 387.468 C 85.621 396.730, 92.614 402.719, 100 407.664 C 111.921 415.643, 129.914 426.413, 138.921 430.960 C 142.265 432.648, 145 434.147, 145 434.291 C 145 435.763, 164.404 478.789, 165.728 480.253 C 169.753 484.704, 177.936 487.282, 193.416 488.973 C 201.829 489.893, 202.490 490.139, 205.125 493.336 C 208.097 496.941, 210.904 498.392, 217.778 499.876 C 222.969 500.997, 233.036 499.183, 235.873 496.615 C 237.673 494.986, 238.137 494.981, 243.644 496.536 C 246.865 497.446, 251.504 498.848, 253.952 499.652 C 256.635 500.533, 261.405 501.021, 265.952 500.881 C 270.104 500.753, 276.038 501.260, 279.141 502.008 C 283.809 503.133, 285.792 503.144, 290.641 502.076 C 295.523 501, 297.282 499.980, 301.187 495.961 C 307.147 489.827, 307.445 489.686, 320 487.036 C 332.999 484.292, 339.168 481.712, 342.905 477.456 C 347.289 472.462, 349.440 466.008, 352.579 448.428 C 352.861 446.846, 354.184 446.070, 358.168 445.151 C 361.039 444.488, 367.294 442.383, 372.069 440.473 L 380.750 436.999 386.125 439.344 C 405.001 447.578, 430.938 446.937, 439.476 438.025 C 441.070 436.361, 443.368 435, 444.582 435 C 448.541 435, 460.355 430.904, 467 427.226 C 477.247 421.556, 490 408.231, 490 403.194 C 490 402.417, 492.262 399.305, 495.027 396.280 C 505.949 384.329, 512.665 366.919, 511.718 353.008 C 511.069 343.485, 508.696 335.868, 505.090 331.736 C 502.340 328.585, 502.284 328.291, 502.950 320.500 C 504.612 301.067, 500.144 282.417, 492.650 277.506 C 489.220 275.259, 476.230 271.723, 473.395 272.265 C 471.400 272.646, 470.959 272.238, 470.531 269.608 C 468.402 256.532, 467.566 252.308, 465.367 243.500 C 463.994 238, 460.243 225.400, 457.031 215.500 C 451.774 199.294, 451.138 196.404, 450.650 186.500 C 449.925 171.790, 447.251 161.891, 440.115 147.500 C 436.843 140.900, 432.573 130.325, 430.626 124 C 423.552 101.018, 414.404 86.183, 396.088 67.988 C 373.125 45.175, 347.281 29.390, 322.389 22.971 C 295.197 15.960, 285.817 14.730, 257 14.398 C 237.147 14.169, 228.117 14.466, 221 15.584 " stroke="red" fill="black" fill-rule="evenodd"/>
</svg>